<svg xmlns="http://www.w3.org/2000/svg" version="1.1" xmlns:xlink="http://www.w3.org/1999/xlink" width="512" height="512" x="0" y="0" viewBox="0 0 512 512" style="enable-background:new 0 0 512 512" xml:space="preserve"><g><path fill="#A8E7EF" d="M419.775 247.702v169.131c0 5.141-2.816 9.869-7.339 12.32l-149.758 81.142a14.013 14.013 0 0 1-13.35 0l-149.77-81.142a14.025 14.025 0 0 1-7.328-12.32V247.702z" opacity="1" data-original="#a8e7ef"></path><g fill="#70D9E6"><path d="M419.775 278.134v57.545l-86.535 46.885a14.048 14.048 0 0 1-11.175.95l-66.063-22.372v-83.008z" fill="#70D9E6" opacity="1" data-original="#70d9e6"></path><path d="M390.165 247.703v193.516l22.272-12.068a14.015 14.015 0 0 0 7.338-12.321V247.703zM256.003 247.702V512c-2.301 0-4.591-.561-6.687-1.694L99.558 429.152a14.039 14.039 0 0 1-7.328-12.32v-169.13z" fill="#70D9E6" opacity="1" data-original="#70d9e6"></path></g><path fill="#3AD1E0" d="M256.003 278.134v83.008l-66.075 22.372a14.023 14.023 0 0 1-11.163-.95L92.23 335.679v-57.545z" opacity="1" data-original="#3ad1e0"></path><path fill="#3AD1E0" d="M226.954 247.702V498.18l22.367 12.12a13.977 13.977 0 0 0 6.684 1.696V247.702z" opacity="1" data-original="#3ad1e0"></path><path fill="#756F6F" d="M256 158.966 92.225 247.703 256 336.439l163.775-88.736z" opacity="1" data-original="#756f6f"></path><path fill="#5B5555" d="m386.08 265.964-130.077 70.471-130.077-70.471 85.206-46.169a94.185 94.185 0 0 1 89.741 0z" opacity="1" data-original="#5b5555"></path><path fill="#A8E7EF" d="m471.874 187.931-52.098 59.772L256 158.966l54.161-62.135a7.008 7.008 0 0 1 8.62-1.557l151.149 81.892c3.945 2.138 4.892 7.382 1.944 10.765z" opacity="1" data-original="#a8e7ef"></path><path fill="#70D9E6" d="M328.351 118.957c0 12.217-9.905 22.132-22.121 22.132-9.925 0-18.32-6.53-21.121-15.518l24.787-28.432c10.477 1.749 18.455 10.851 18.455 21.818z" opacity="1" data-original="#70d9e6"></path><path fill="#D4F2F6" d="m40.126 187.931 52.098 59.772L256 158.966l-54.161-62.135a7.008 7.008 0 0 0-8.62-1.557L42.071 177.167c-3.946 2.137-4.893 7.381-1.945 10.764z" opacity="1" data-original="#d4f2f6"></path><path fill="#A8E7EF" d="M163.214 131.059c0 15.383-12.477 27.849-27.86 27.849-11.967 0-22.173-7.551-26.11-18.143l48.502-26.277a27.693 27.693 0 0 1 5.468 16.571zM35.57 266.887l56.655-19.185L256 336.439l-66.068 22.37a14.01 14.01 0 0 1-11.17-.952L34.479 279.685c-5.377-2.914-4.702-10.836 1.091-12.798z" opacity="1" data-original="#a8e7ef"></path><path fill="#D4F2F6" d="m476.43 266.887-56.655-19.185L256 336.439l66.068 22.37a14.01 14.01 0 0 0 11.17-.952l144.282-78.172c5.378-2.914 4.703-10.836-1.09-12.798z" opacity="1" data-original="#d4f2f6"></path><path fill="#31A7FB" d="M299.746 453.899a7.727 7.727 0 0 1-3.688-14.521l17.724-9.603a7.727 7.727 0 0 1 7.362 13.587l-17.724 9.603a7.69 7.69 0 0 1-3.674.934z" opacity="1" data-original="#31a7fb"></path><path fill="#BCEA73" d="M107.501 103.203c0-15.384 12.471-27.855 27.855-27.855s27.855 12.471 27.855 27.855-12.471 27.855-27.855 27.855-27.855-12.471-27.855-27.855" opacity="1" data-original="#bcea73"></path><path fill="#99D53B" d="M121.228 127.207c10.934-2.52 19.081-12.309 19.081-24.007 0-11.686-8.134-21.487-19.068-24.007a27.658 27.658 0 0 1 14.117-3.844c15.377 0 27.851 12.475 27.851 27.851 0 15.389-12.475 27.864-27.851 27.864-5.156 0-9.993-1.4-14.13-3.857" opacity="1" data-original="#99d53b"></path><g fill="#BCEA73"><path d="M199.633 22.738a7.729 7.729 0 0 0-10.928 0l-6.374 6.374-6.374-6.374a7.727 7.727 0 0 0-10.928 10.927l6.374 6.374-6.374 6.374a7.727 7.727 0 0 0 10.928 10.927l6.374-6.374 6.374 6.374c1.509 1.509 3.487 2.263 5.464 2.263s3.955-.755 5.464-2.263a7.727 7.727 0 0 0 0-10.927l-6.374-6.374 6.374-6.374a7.727 7.727 0 0 0 0-10.927zM422 90.652l6.374-6.374a7.727 7.727 0 0 0-10.928-10.927l-6.374 6.374-6.374-6.374a7.727 7.727 0 0 0-10.928 10.927l6.374 6.374-6.374 6.374a7.727 7.727 0 0 0 10.928 10.927l6.374-6.374 6.374 6.374c1.509 1.509 3.487 2.263 5.464 2.263s3.955-.755 5.464-2.263a7.727 7.727 0 0 0 0-10.927z" fill="#BCEA73" opacity="1" data-original="#bcea73"></path></g><circle cx="306.227" cy="96.834" r="22.125" fill="#64B9FC" opacity="1" data-original="#64b9fc"></circle><path fill="#31A7FB" d="M328.351 96.831c0 12.224-9.909 22.133-22.123 22.133a21.91 21.91 0 0 1-11.223-3.064c8.685-2.002 15.156-9.777 15.156-19.069 0-9.282-6.461-17.067-15.146-19.069a21.973 21.973 0 0 1 11.213-3.054c12.214 0 22.123 9.909 22.123 22.123z" opacity="1" data-original="#31a7fb"></path><circle cx="351.116" cy="25.935" r="25.935" fill="#A8E7EF" opacity="1" data-original="#a8e7ef"></circle><path fill="#70D9E6" d="M377.05 25.932c0 14.329-11.615 25.944-25.932 25.944-4.8 0-9.304-1.304-13.156-3.591 10.181-2.347 17.766-11.461 17.766-22.353 0-10.88-7.573-20.006-17.754-22.353A25.753 25.753 0 0 1 351.117 0c14.318 0 25.933 11.615 25.933 25.932z" opacity="1" data-original="#70d9e6"></path><path fill="#A3E440" d="M326.742 273.153c0 9.982-2.071 19.491-5.81 28.103L256 336.437l-64.932-35.181c-3.739-8.612-5.81-18.121-5.81-28.103 0-39.064 31.678-70.743 70.742-70.743s70.742 31.678 70.742 70.743z" opacity="1" data-original="#a3e440"></path><path fill="#99D53B" d="M326.732 273.153c0 9.982-2.071 19.491-5.8 28.103l-45.709 24.766c14.567-12.96 23.746-31.843 23.746-52.869 0-34.315-24.426-62.913-56.845-69.372a70.847 70.847 0 0 1 13.877-1.36c39.063-.001 70.731 31.657 70.731 70.732z" opacity="1" data-original="#99d53b"></path><path fill="#82B732" d="M270.056 301.935a7.697 7.697 0 0 1-5.012-1.85c-2.502-2.135-6.097-3.367-9.864-3.378h-.051c-3.748 0-7.33 1.208-9.833 3.319a7.726 7.726 0 0 1-10.887-.927 7.725 7.725 0 0 1 .926-10.887c5.324-4.489 12.35-6.958 19.794-6.958h.098c7.481.023 14.531 2.536 19.851 7.077a7.726 7.726 0 0 1-5.022 13.604zM222.387 273.826h-.054c-4.268-.03-7.738-3.513-7.709-7.78.03-4.267 3.472-7.736 7.743-7.673l.072.001a7.727 7.727 0 0 1-.052 15.452zM289.678 273.826h-.054c-4.268-.03-7.738-3.513-7.709-7.78.03-4.248 3.448-7.673 7.689-7.673h.054l.072.001a7.727 7.727 0 0 1-.052 15.452z" opacity="1" data-original="#82b732"></path></g></svg>