<svg xmlns="http://www.w3.org/2000/svg" version="1.1" xmlns:xlink="http://www.w3.org/1999/xlink" width="512" height="512" x="0" y="0" viewBox="0 0 53 53" style="enable-background:new 0 0 512 512" xml:space="preserve"><g><path fill="#D9A55F" d="m33.776 5.523 2.24-1.302L50.5 29.317l-2.24 1.301z" opacity="1" data-original="#d9a55f"></path><path fill="#BF7D5A" d="M33.776 5.523 48.26 30.618l-14.53-8.39z" opacity="1" data-original="#bf7d5a"></path><path fill="#C9CEE2" d="m45.006 25.876-.008 2.847-28.79 16.731.008-2.847z" opacity="1" data-original="#c9cee2"></path><path fill="#BF7D5A" d="m16.216 42.607-.008 2.847-11.28-6.51.008-2.847z" opacity="1" data-original="#bf7d5a"></path><path fill="#E3E7F0" d="m45.006 25.876-28.79 16.731-11.28-6.51 28.79-16.731z" opacity="1" data-original="#e3e7f0"></path><path fill="#FEBC1F" d="m32.313 15.81-.041 14.427a2473.405 2473.405 0 0 0-9.112-5.259l.04-14.426a2268.941 2268.941 0 0 1 9.113 5.258z" opacity="1" data-original="#febc1f"></path><path fill="#FEBC1F" d="m30.04 32.046.283-.027c1.74-.154 2.836-.786 3.159-1.83l.057-.171.04-14.426-.053.172c-.327 1.043-1.423 1.675-3.163 1.83l-.283.021z" opacity="1" data-original="#febc1f"></path><path fill="#F3F1FC" d="m30.885 17.37 1.606-.935-8.941-5.166-1.413.83z" opacity="1" data-original="#f3f1fc"></path><path fill="#FFDE9B" d="M28.745 12.791c1.615.932 3.213 1.857 4.618 2.673l.217.126-.056.173c-.326 1.042-1.419 1.674-3.16 1.83l-.285.024-.209-.116a327.39 327.39 0 0 1-4.669-2.649 339.744 339.744 0 0 1-4.684-2.75l.839-.47a343.257 343.257 0 0 0 9.104 5.26c.993-.133 1.589-.481 1.853-1.082a2478.245 2478.245 0 0 0-9.112-5.258l.822-.48c1.475.846 3.107 1.787 4.722 2.719z" opacity="1" data-original="#ffde9b"></path><path fill="#FFDE9B" d="m32.193 16.025.879.52c-.582.608-1.49.935-2.658 1.04l.046-.693c.893-.119 1.462-.413 1.733-.867z" opacity="1" data-original="#ffde9b"></path><path fill="#FFD06C" d="M20.474 26.527c1.45.87 3.071 1.82 4.688 2.753 1.617.932 3.23 1.851 4.666 2.646l.212.12.04-14.43-.208-.116a299.546 299.546 0 0 1-4.67-2.646 325.874 325.874 0 0 1-4.684-2.753z" opacity="1" data-original="#ffd06c"></path><g fill="#F45170"><path d="M28.136 18.85a387.921 387.921 0 0 1-5.696-3.258l-.022 4.434c1.217.722 2.562 1.508 3.956 2.311.613.354 1.193.687 1.742 1zM27.912 24.84a.266.266 0 0 0 .134-.497l-5.27-3.093a.266.266 0 1 0-.268.461l5.27 3.094a.265.265 0 0 0 .134.036zM27.912 26.326a.266.266 0 0 0 .134-.498l-5.27-3.093a.266.266 0 1 0-.268.461l5.27 3.093a.265.265 0 0 0 .134.037z" fill="#F45170" opacity="1" data-original="#f45170"></path></g><path fill="#497BFE" d="m27.056 18.865-.041 14.427a2474.019 2474.019 0 0 0-9.112-5.258l.04-14.427a2269.355 2269.355 0 0 1 9.113 5.258z" opacity="1" data-original="#497bfe"></path><path fill="#497BFE" d="m24.783 35.1.283-.026c1.74-.154 2.836-.786 3.159-1.829l.057-.172.04-14.426-.053.172c-.327 1.043-1.423 1.675-3.164 1.83l-.282.021z" opacity="1" data-original="#497bfe"></path><path fill="#F3F1FC" d="m25.628 20.424 1.606-.934-8.941-5.165-1.413.828z" opacity="1" data-original="#f3f1fc"></path><path fill="#57B3FE" d="M23.488 15.846c1.615.933 3.213 1.857 4.618 2.673l.217.126-.056.173c-.326 1.042-1.419 1.674-3.16 1.83l-.285.024-.21-.115a327.401 327.401 0 0 1-4.668-2.65 339.743 339.743 0 0 1-4.684-2.75l.839-.47a343.247 343.247 0 0 0 9.103 5.26c.994-.133 1.59-.481 1.854-1.082a2477.503 2477.503 0 0 0-9.112-5.258l.821-.48c1.476.847 3.108 1.787 4.723 2.72z" opacity="1" data-original="#57b3fe"></path><path fill="#57B3FE" d="m26.936 19.08.878.52c-.581.608-1.489.935-2.657 1.041l.045-.694c.894-.119 1.463-.412 1.734-.867z" opacity="1" data-original="#57b3fe"></path><path fill="#5094FF" d="M15.217 29.582c1.45.87 3.07 1.82 4.688 2.753 1.617.932 3.23 1.851 4.666 2.646l.212.12.04-14.43-.208-.116a299.554 299.554 0 0 1-4.67-2.646 325.874 325.874 0 0 1-4.684-2.753z" opacity="1" data-original="#5094ff"></path><g fill="#F45170"><path d="M22.879 21.906a387.907 387.907 0 0 1-5.696-3.26l-.022 4.435c1.217.722 2.562 1.508 3.956 2.312.613.353 1.193.686 1.742 1zM22.655 27.896a.266.266 0 0 0 .134-.498l-5.27-3.093a.266.266 0 1 0-.268.461l5.27 3.094a.265.265 0 0 0 .134.036zM22.655 29.38a.266.266 0 0 0 .134-.497l-5.27-3.093a.266.266 0 1 0-.268.461l5.27 3.094a.265.265 0 0 0 .134.036z" fill="#F45170" opacity="1" data-original="#f45170"></path></g><path fill="#DF3260" d="m21.799 21.92-.041 14.427a2473.373 2473.373 0 0 0-9.112-5.258l.04-14.427A2269.757 2269.757 0 0 1 21.8 21.92z" opacity="1" data-original="#df3260"></path><path fill="#E93565" d="m19.526 38.156.282-.027c1.741-.154 2.837-.786 3.16-1.829l.057-.172.04-14.426-.053.172c-.327 1.043-1.423 1.675-3.164 1.83l-.283.021z" opacity="1" data-original="#e93565"></path><path fill="#F3F1FC" d="m20.37 23.48 1.607-.935-8.941-5.165-1.413.828z" opacity="1" data-original="#f3f1fc"></path><path fill="#F45170" d="M18.231 18.901c1.615.933 3.213 1.857 4.618 2.673l.217.126-.056.174c-.326 1.04-1.419 1.674-3.16 1.829l-.285.024-.21-.115a327.419 327.419 0 0 1-4.668-2.65 339.767 339.767 0 0 1-4.684-2.75l.839-.47a343.277 343.277 0 0 0 9.103 5.26c.994-.133 1.59-.481 1.854-1.082a2477.503 2477.503 0 0 0-9.113-5.258l.822-.48c1.476.847 3.108 1.787 4.723 2.72z" opacity="1" data-original="#f45170"></path><path fill="#F45170" d="m21.68 22.135.877.52c-.581.608-1.489.935-2.658 1.041l.046-.694c.894-.119 1.463-.412 1.734-.867z" opacity="1" data-original="#f45170"></path><path fill="#DF3260" d="M9.96 32.637c1.45.87 3.07 1.82 4.688 2.753 1.617.932 3.23 1.851 4.666 2.647l.212.119.04-14.43-.208-.115a299.538 299.538 0 0 1-4.67-2.647 325.893 325.893 0 0 1-4.684-2.753z" opacity="1" data-original="#df3260"></path><g fill="#F45170"><path d="M17.622 24.96a387.906 387.906 0 0 1-5.696-3.258l-.023 4.434c1.218.722 2.563 1.508 3.957 2.312.613.353 1.192.686 1.742 1zM17.397 30.951a.266.266 0 0 0 .135-.498l-5.27-3.093a.266.266 0 1 0-.268.461l5.27 3.094a.265.265 0 0 0 .133.036zM17.397 32.436a.266.266 0 0 0 .135-.498l-5.27-3.093a.266.266 0 1 0-.268.461l5.27 3.094a.265.265 0 0 0 .133.036z" fill="#F45170" opacity="1" data-original="#f45170"></path></g><path fill="#D9A55F" d="m2.547 23.683 2.24-1.301L19.27 47.477l-2.24 1.302z" opacity="1" data-original="#d9a55f"></path><path fill="#BF7D5A" d="m2.547 23.683 14.484 25.096L2.5 40.389z" opacity="1" data-original="#bf7d5a"></path></g></svg>